STARTFONT 2.3
FONT -FontForge-Indie Flower-Book-R-Normal--14-140-72-72-P-64-ISO10646-1
SIZE 14 72 72  4
FONTBOUNDINGBOX 18 21 -2 -7
COMMENT "Generated by fontforge, http://fontforge.sourceforge.net"
COMMENT "Copyright (c) 2010, Kimberly Geswein (kimberlygeswein.com)"
STARTPROPERTIES 40
FOUNDRY "FontForge"
FAMILY_NAME "Indie Flower"
WEIGHT_NAME "Book"
SLANT "R"
SETWIDTH_NAME "Normal"
ADD_STYLE_NAME ""
PIXEL_SIZE 14
POINT_SIZE 140
RESOLUTION_X 72
RESOLUTION_Y 72
SPACING "P"
AVERAGE_WIDTH 64
CHARSET_REGISTRY "ISO10646"
CHARSET_ENCODING "1"
FONTNAME_REGISTRY ""
CHARSET_COLLECTIONS "ISO8859-2 ISO8859-9 ISO8859-4 ISO10646-1"
BITS_PER_PIXEL 4
FONT_NAME "IndieFlower"
FACE_NAME "Indie Flower"
COPYRIGHT "Copyright (c) 2010, Kimberly Geswein (kimberlygeswein.com)"
FONT_VERSION "1.001 2010"
FONT_ASCENT 11
FONT_DESCENT 3
UNDERLINE_POSITION -1
UNDERLINE_THICKNESS 1
X_HEIGHT 5
CAP_HEIGHT 7
RAW_ASCENT 799
RAW_DESCENT 200
NORM_SPACE 5
RELATIVE_WEIGHT 40
RELATIVE_SETWIDTH 50
SUPERSCRIPT_X 0
SUPERSCRIPT_Y 6
SUPERSCRIPT_SIZE 9
SUBSCRIPT_X 0
SUBSCRIPT_Y 1
SUBSCRIPT_SIZE 9
AVG_LOWERCASE_WIDTH 62
AVG_UPPERCASE_WIDTH 75
ENDPROPERTIES
CHARS 356
STARTCHAR space
ENCODING 32
SWIDTH 375 0
DWIDTH 5 0
BBX 1 1 0 0
BITMAP
00
ENDCHAR
STARTCHAR exclam
ENCODING 33
SWIDTH 149 0
DWIDTH 2 0
BBX 2 12 0 0
BITMAP
32
73
73
74
74
74
74
65
22
00
34
AA
ENDCHAR
STARTCHAR quotedbl
ENCODING 34
SWIDTH 234 0
DWIDTH 3 0
BBX 3 6 0 6
BITMAP
0010
6090
B1C0
94D0
36B0
0010
ENDCHAR
STARTCHAR numbersign
ENCODING 35
SWIDTH 768 0
DWIDTH 11 0
BBX 11 7 0 0
BITMAP
000060700000
0000A0A22100
0258ECFB9800
9C73B3976610
0268EDDB6730
044266760000
000011450000
ENDCHAR
STARTCHAR dollar
ENCODING 36
SWIDTH 581 0
DWIDTH 8 0
BBX 8 13 0 0
BITMAP
00007210
0000B730
0006FE50
00A98940
00A57800
001C8A00
0007CE40
00079794
3008831B
7A09920B
04BED248
001EEB91
0008A000
ENDCHAR
STARTCHAR percent
ENCODING 37
SWIDTH 636 0
DWIDTH 9 0
BBX 9 9 0 0
BITMAP
0000000300
1860009200
A577064000
C029370000
4AA2A01100
000852CC30
002C0A1480
00940A0A30
00A008C600
ENDCHAR
STARTCHAR ampersand
ENCODING 38
SWIDTH 457 0
DWIDTH 6 0
BBX 7 10 0 0
BITMAP
00830000
00EA0000
00F90000
00F50000
02D08A10
08D0B100
1A499000
840E4000
B0698000
8C904200
ENDCHAR
STARTCHAR quotesingle
ENCODING 39
SWIDTH 102 0
DWIDTH 1 0
BBX 2 4 0 7
BITMAP
10
A0
A2
83
ENDCHAR
STARTCHAR parenleft
ENCODING 40
SWIDTH 421 0
DWIDTH 6 0
BBX 6 10 0 -1
BITMAP
000010
0019B7
00A300
084000
2A0000
840000
A10000
840000
2C6300
027700
ENDCHAR
STARTCHAR parenright
ENCODING 41
SWIDTH 290 0
DWIDTH 4 0
BBX 4 10 0 -1
BITMAP
1200
2B70
00C3
0049
000C
002A
0084
04C0
4E30
9400
ENDCHAR
STARTCHAR asterisk
ENCODING 42
SWIDTH 412 0
DWIDTH 6 0
BBX 6 6 0 3
BITMAP
000033
2B98A1
18FFA0
5DBF50
1B0EC0
000610
ENDCHAR
STARTCHAR plus
ENCODING 43
SWIDTH 459 0
DWIDTH 6 0
BBX 7 6 0 0
BITMAP
00800000
00930000
14BC8610
889C6500
003A0000
00190000
ENDCHAR
STARTCHAR comma
ENCODING 44
SWIDTH 130 0
DWIDTH 2 0
BBX 2 5 0 -3
BITMAP
93
75
93
C1
50
ENDCHAR
STARTCHAR hyphen
ENCODING 45
SWIDTH 375 0
DWIDTH 5 0
BBX 5 2 0 3
BITMAP
156730
686550
ENDCHAR
STARTCHAR period
ENCODING 46
SWIDTH 204 0
DWIDTH 3 0
BBX 3 3 0 0
BITMAP
0810
5F60
2D30
ENDCHAR
STARTCHAR slash
ENCODING 47
SWIDTH 309 0
DWIDTH 4 0
BBX 4 11 0 0
BITMAP
0003
000A
000A
0047
0093
01C0
0580
0B30
2C00
8600
A000
ENDCHAR
STARTCHAR zero
ENCODING 48
SWIDTH 430 0
DWIDTH 6 0
BBX 6 6 0 0
BITMAP
04DD40
3902C2
910048
900039
4800A4
06BD80
ENDCHAR
STARTCHAR one
ENCODING 49
SWIDTH 318 0
DWIDTH 4 0
BBX 5 9 0 0
BITMAP
000100
000920
000D00
00AE00
09BC00
885A00
206800
007500
007200
ENDCHAR
STARTCHAR two
ENCODING 50
SWIDTH 497 0
DWIDTH 7 0
BBX 7 8 0 0
BITMAP
00058100
001A4A00
00020C00
00000B10
00000D00
01005700
CFA8C000
3AA9AD60
ENDCHAR
STARTCHAR three
ENCODING 51
SWIDTH 430 0
DWIDTH 6 0
BBX 6 8 0 0
BITMAP
155400
575770
000590
0ADB00
025BA0
300076
7A1039
04CCC3
ENDCHAR
STARTCHAR four
ENCODING 52
SWIDTH 412 0
DWIDTH 6 0
BBX 6 9 0 0
BITMAP
040000
490000
930002
A00067
A101D4
695CF2
08B5A3
000095
000084
ENDCHAR
STARTCHAR five
ENCODING 53
SWIDTH 571 0
DWIDTH 8 0
BBX 8 10 0 0
BITMAP
00013320
003D99A5
00660000
00C00000
03DD8100
00004B20
000002A0
600000C0
84101890
19DEE800
ENDCHAR
STARTCHAR six
ENCODING 54
SWIDTH 440 0
DWIDTH 6 0
BBX 6 9 0 0
BITMAP
000152
004B78
04A000
1B0000
6CAA60
A60096
A0001B
780079
1AED90
ENDCHAR
STARTCHAR seven
ENCODING 55
SWIDTH 412 0
DWIDTH 6 0
BBX 6 8 0 0
BITMAP
465510
154A30
000820
000B20
09BFC6
001C00
004800
006500
ENDCHAR
STARTCHAR eight
ENCODING 56
SWIDTH 375 0
DWIDTH 5 0
BBX 5 8 0 0
BITMAP
1BD900
A40C00
944700
0AE000
1B5800
670380
2B00A0
04AA70
ENDCHAR
STARTCHAR nine
ENCODING 57
SWIDTH 300 0
DWIDTH 4 0
BBX 4 8 0 0
BITMAP
3BA6
B10D
C02E
59AC
003B
001A
001A
001A
ENDCHAR
STARTCHAR colon
ENCODING 58
SWIDTH 84 0
DWIDTH 1 0
BBX 1 4 0 1
BITMAP
60
20
00
50
ENDCHAR
STARTCHAR semicolon
ENCODING 59
SWIDTH 128 0
DWIDTH 2 0
BBX 3 9 -1 -3
BITMAP
0400
0710
0000
0000
0350
0560
0A40
1D00
2400
ENDCHAR
STARTCHAR less
ENCODING 60
SWIDTH 487 0
DWIDTH 7 0
BBX 7 6 0 0
BITMAP
00001820
0003B400
00891000
2B400000
BD853000
0367AB00
ENDCHAR
STARTCHAR equal
ENCODING 61
SWIDTH 524 0
DWIDTH 7 0
BBX 7 5 0 1
BITMAP
25666630
47775580
00000000
5899AA30
13333300
ENDCHAR
STARTCHAR greater
ENCODING 62
SWIDTH 403 0
DWIDTH 6 0
BBX 6 7 0 0
BITMAP
420000
3C8200
005AD5
0001C4
003C50
07B200
780000
ENDCHAR
STARTCHAR question
ENCODING 63
SWIDTH 272 0
DWIDTH 4 0
BBX 4 13 0 0
BITMAP
0100
9BA0
1066
0048
0095
02D0
0960
0D30
06A4
0000
0000
0000
0065
ENDCHAR
STARTCHAR at
ENCODING 64
SWIDTH 815 0
DWIDTH 11 0
BBX 11 14 0 -1
BITMAP
000157400000
006B548B5000
068000007900
290000000780
710029A810C0
80039004A0A0
800A100C10B0
810A001F11B0
470A007E8B50
0B24BC805300
03B100000000
004B30000320
00019BABC920
000000100000
ENDCHAR
STARTCHAR A
ENCODING 65
SWIDTH 562 0
DWIDTH 8 0
BBX 8 11 0 0
BITMAP
00597000
06616A00
09000750
270001A0
350000A0
44000093
8C9887C5
57001276
38000057
2A000067
0A000085
ENDCHAR
STARTCHAR B
ENCODING 66
SWIDTH 741 0
DWIDTH 10 0
BBX 11 10 0 0
BITMAP
047AA6100000
65AB45B10000
002900740000
000B16B00000
000A6EC30000
0008415B7000
000670007700
000490000D10
0009A0001E10
0003ACBCC500
ENDCHAR
STARTCHAR C
ENCODING 67
SWIDTH 515 0
DWIDTH 7 0
BBX 7 9 0 0
BITMAP
002AD600
02B34400
0A100000
54000000
90000000
A0000000
92000000
3A002550
07EDA720
ENDCHAR
STARTCHAR D
ENCODING 68
SWIDTH 741 0
DWIDTH 10 0
BBX 10 10 0 -1
BITMAP
39BB951000
4300E6B600
0000B008A0
0000830086
000075001C
000067000C
000058003C
00012503D4
0005EBCC40
0000021000
ENDCHAR
STARTCHAR E
ENCODING 69
SWIDTH 524 0
DWIDTH 7 0
BBX 7 9 0 0
BITMAP
5A999820
86322220
84000000
84136810
AB975100
A1000000
B1000000
A1001210
4CEFEC50
ENDCHAR
STARTCHAR F
ENCODING 70
SWIDTH 514 0
DWIDTH 7 0
BBX 10 9 -1 0
BITMAP
0034554200
39BE888BC3
001A000011
000A000000
003E777100
027D975100
0009300000
0008500000
0005600000
ENDCHAR
STARTCHAR G
ENCODING 71
SWIDTH 571 0
DWIDTH 8 0
BBX 8 9 0 -1
BITMAP
00000330
0018A892
02A30000
1B110000
6505BBD4
73000065
490003C5
06CB97A5
00000049
ENDCHAR
STARTCHAR H
ENCODING 72
SWIDTH 524 0
DWIDTH 7 0
BBX 7 10 0 0
BITMAP
00000130
71000460
73000460
65000470
47003B70
394B9680
8F820380
1C0002A0
0B0001B0
070000B0
ENDCHAR
STARTCHAR I
ENCODING 73
SWIDTH 167 0
DWIDTH 2 0
BBX 3 8 0 0
BITMAP
6000
9200
6500
2800
0B00
0C00
0C00
0910
ENDCHAR
STARTCHAR J
ENCODING 74
SWIDTH 439 0
DWIDTH 6 0
BBX 6 10 0 0
BITMAP
000060
000074
000057
000039
00001B
80000C
74000C
09100B
01A31B
0019C4
ENDCHAR
STARTCHAR K
ENCODING 75
SWIDTH 468 0
DWIDTH 7 0
BBX 7 9 0 0
BITMAP
10001000
A0096000
A1880000
77900000
6C000000
5E400000
58C50000
48199100
28004C10
ENDCHAR
STARTCHAR L
ENCODING 76
SWIDTH 346 0
DWIDTH 5 0
BBX 5 8 0 0
BITMAP
130000
570000
750000
930000
A20000
B10000
940000
2BED60
ENDCHAR
STARTCHAR M
ENCODING 77
SWIDTH 534 0
DWIDTH 7 0
BBX 8 9 0 0
BITMAP
51000140
7B000880
1F603E70
2AAECB70
2A000480
3A0003A0
390001C0
390000E0
150000C1
ENDCHAR
STARTCHAR N
ENCODING 78
SWIDTH 609 0
DWIDTH 9 0
BBX 9 8 0 0
BITMAP
3200000000
670000B100
5B0000A700
6F20002C00
7A90000B10
83A3000A10
941C514B00
84019CA200
ENDCHAR
STARTCHAR O
ENCODING 79
SWIDTH 609 0
DWIDTH 9 0
BBX 9 7 0 0
BITMAP
04A9500000
49127B4000
910001B400
A000001C00
8500000B10
1D50005C00
02ACBB7100
ENDCHAR
STARTCHAR P
ENCODING 80
SWIDTH 627 0
DWIDTH 9 0
BBX 9 9 0 0
BITMAP
0355300000
98679C9200
4005004C20
0009100570
0009200960
0008B9C700
0006A51000
0003800000
0000800000
ENDCHAR
STARTCHAR Q
ENCODING 81
SWIDTH 642 0
DWIDTH 9 0
BBX 9 10 0 -2
BITMAP
0047400000
0875AC2000
47000CC200
8300132B10
9200100570
5600940290
0B612E6C20
018EEDF400
0000002A40
0000000180
ENDCHAR
STARTCHAR R
ENCODING 82
SWIDTH 579 0
DWIDTH 8 0
BBX 9 10 -1 -1
BITMAP
049BB95000
1B21138B00
0234000940
0047148D10
003FD95100
001F400000
000AA30000
00091A5000
0004209910
0000000450
ENDCHAR
STARTCHAR S
ENCODING 83
SWIDTH 627 0
DWIDTH 9 0
BBX 9 10 0 -1
BITMAP
0004651000
00A645C400
0280000100
00A7000000
0005B60000
200007C400
A200001B30
3A10000950
029BBAB800
0000110000
ENDCHAR
STARTCHAR T
ENCODING 84
SWIDTH 581 0
DWIDTH 8 0
BBX 10 9 0 0
BITMAP
3322100000
58ABECBC92
0000910031
0000820000
0000740000
0000570000
0000490000
00001C0000
00000C3000
ENDCHAR
STARTCHAR U
ENCODING 85
SWIDTH 571 0
DWIDTH 8 0
BBX 8 8 0 0
BITMAP
25000120
82000570
91000590
810002A0
640000C0
380001E4
0B403BB9
02CE9106
ENDCHAR
STARTCHAR V
ENCODING 86
SWIDTH 421 0
DWIDTH 6 0
BBX 6 8 0 0
BITMAP
200001
940038
4B0077
0D30A4
06A0D1
01D3B0
007D60
001C10
ENDCHAR
STARTCHAR W
ENCODING 87
SWIDTH 703 0
DWIDTH 10 0
BBX 10 7 0 0
BITMAP
8000000260
C0000001E0
C0002000B4
B201B00067
8402F10048
3A2C9B11A4
07C404DD60
ENDCHAR
STARTCHAR X
ENCODING 88
SWIDTH 534 0
DWIDTH 7 0
BBX 8 9 0 -1
BITMAP
02000000
0A2003A2
02A03A10
007A9000
007E1000
04A88000
1C10A400
75001A00
70000000
ENDCHAR
STARTCHAR Y
ENCODING 89
SWIDTH 403 0
DWIDTH 6 0
BBX 6 10 0 -1
BITMAP
900023
770064
0B60C1
008DC0
000850
000B10
001A00
003800
003800
000100
ENDCHAR
STARTCHAR Z
ENCODING 90
SWIDTH 571 0
DWIDTH 8 0
BBX 8 9 0 0
BITMAP
39A82000
5302A300
00002900
00003800
0158DD91
0369C220
000A1000
00760255
007DDD94
ENDCHAR
STARTCHAR bracketleft
ENCODING 91
SWIDTH 477 0
DWIDTH 7 0
BBX 8 12 0 -2
BITMAP
0016AA30
4BA62000
94000000
58000000
1C000000
0B000000
09100000
07300000
05500000
04700000
03EBBCC6
00300000
ENDCHAR
STARTCHAR backslash
ENCODING 92
SWIDTH 430 0
DWIDTH 6 0
BBX 6 8 0 0
BITMAP
500000
770000
0C5000
02D300
004D20
0007B0
0000A6
00003A
ENDCHAR
STARTCHAR bracketright
ENCODING 93
SWIDTH 430 0
DWIDTH 6 0
BBX 6 14 0 -2
BITMAP
697400
0469B0
0000C2
000084
000055
000045
000036
000027
000028
000029
00002A
00002B
1BBBBB
045553
ENDCHAR
STARTCHAR asciicircum
ENCODING 94
SWIDTH 375 0
DWIDTH 5 0
BBX 5 4 0 7
BITMAP
002000
00D600
089E30
260340
ENDCHAR
STARTCHAR underscore
ENCODING 95
SWIDTH 656 0
DWIDTH 9 0
BBX 9 2 0 0
BITMAP
4642111100
1479BCEEC0
ENDCHAR
STARTCHAR grave
ENCODING 96
SWIDTH 172 0
DWIDTH 2 0
BBX 3 2 0 6
BITMAP
6400
1A10
ENDCHAR
STARTCHAR a
ENCODING 97
SWIDTH 505 0
DWIDTH 7 0
BBX 7 7 0 0
BITMAP
00BC6000
0010A600
00441D10
3C86AF60
A2000890
86001360
08CEEA40
ENDCHAR
STARTCHAR b
ENCODING 98
SWIDTH 497 0
DWIDTH 7 0
BBX 7 9 0 0
BITMAP
90000000
B1000000
93000000
65000000
4CA95000
2D238C10
1A000580
0C300690
03DCCB20
ENDCHAR
STARTCHAR c
ENCODING 99
SWIDTH 449 0
DWIDTH 6 0
BBX 6 6 0 0
BITMAP
05AA80
490070
A20000
A20000
5A1000
07CCB8
ENDCHAR
STARTCHAR d
ENCODING 100
SWIDTH 524 0
DWIDTH 7 0
BBX 7 10 0 0
BITMAP
00005500
00004D00
00001F20
00000B50
09FC4970
6C229E90
A4000AA0
A3001EC0
6903C6D0
0AEB3050
ENDCHAR
STARTCHAR e
ENCODING 101
SWIDTH 515 0
DWIDTH 7 0
BBX 7 8 0 0
BITMAP
00130000
07A8A000
4800A100
9202C100
B7AA2000
84000000
1B400000
02ADDB40
ENDCHAR
STARTCHAR f
ENCODING 102
SWIDTH 376 0
DWIDTH 5 0
BBX 8 10 -1 0
BITMAP
0004CA30
002B12C2
00720011
00A00000
00A20000
05CA6400
167D6500
000C1000
0006A000
0000C200
ENDCHAR
STARTCHAR g
ENCODING 103
SWIDTH 366 0
DWIDTH 5 0
BBX 8 13 -2 -7
BITMAP
00019A10
000B3560
006502A0
00A103D0
00884BE0
0008A5E0
000000D0
000000B1
000000A2
800000A1
940000C0
1BB526A0
0049CA10
ENDCHAR
STARTCHAR h
ENCODING 104
SWIDTH 427 0
DWIDTH 6 0
BBX 7 10 -1 0
BITMAP
26000000
0C000000
0B200000
08443000
06EBD600
04700B00
03800640
02A00660
01C00770
00A00740
ENDCHAR
STARTCHAR i
ENCODING 105
SWIDTH 174 0
DWIDTH 2 0
BBX 3 9 0 0
BITMAP
4000
5000
0100
2800
2900
1C00
0E00
0D10
0920
ENDCHAR
STARTCHAR j
ENCODING 106
SWIDTH 200 0
DWIDTH 3 0
BBX 6 16 -2 -7
BITMAP
001000
006400
000000
000400
000B00
000A30
000870
0005A0
0002C0
0000E0
3000C1
6500B1
2C00A2
0790A1
007EC0
000120
ENDCHAR
STARTCHAR k
ENCODING 107
SWIDTH 403 0
DWIDTH 6 0
BBX 6 9 0 0
BITMAP
400000
900000
B00120
931B20
668200
4F4000
3F1000
3EB510
4719D5
ENDCHAR
STARTCHAR l
ENCODING 108
SWIDTH 120 0
DWIDTH 2 0
BBX 2 8 0 0
BITMAP
92
93
94
A4
A5
95
94
72
ENDCHAR
STARTCHAR m
ENCODING 109
SWIDTH 750 0
DWIDTH 11 0
BBX 11 6 0 0
BITMAP
3485018D9000
9D598C718700
8600C9000C00
750077000B10
76002B000B10
340001000B00
ENDCHAR
STARTCHAR n
ENCODING 110
SWIDTH 459 0
DWIDTH 6 0
BBX 7 6 0 0
BITMAP
24BC8000
9C109600
96002C00
76000C10
59000B20
0A000A10
ENDCHAR
STARTCHAR o
ENCODING 111
SWIDTH 487 0
DWIDTH 7 0
BBX 7 6 0 0
BITMAP
03ACD400
3A103C10
A1000650
A1000850
69006D10
07CCA200
ENDCHAR
STARTCHAR p
ENCODING 112
SWIDTH 520 0
DWIDTH 7 0
BBX 7 10 0 -5
BITMAP
03ACB600
3C401880
A70000D0
B8A637C0
8A389720
6C000000
2F000000
0D200000
09500000
03600000
ENDCHAR
STARTCHAR q
ENCODING 113
SWIDTH 412 0
DWIDTH 6 0
BBX 6 12 0 -5
BITMAP
03AB90
2B00A3
8300B2
A000E1
9100E0
4B45E0
05AAD0
0000C0
0000C0
0000C1
0000B2
000031
ENDCHAR
STARTCHAR r
ENCODING 114
SWIDTH 346 0
DWIDTH 5 0
BBX 5 7 0 0
BITMAP
004300
8B7A80
A20000
930000
670000
2C0000
090000
ENDCHAR
STARTCHAR s
ENCODING 115
SWIDTH 514 0
DWIDTH 7 0
BBX 7 7 0 0
BITMAP
02540000
4B679000
66007000
08A97400
00013A70
650004B0
19BBCC30
ENDCHAR
STARTCHAR t
ENCODING 116
SWIDTH 328 0
DWIDTH 5 0
BBX 5 9 0 0
BITMAP
048000
03A000
04A000
8DFC40
03B000
03B000
02C000
01C000
008000
ENDCHAR
STARTCHAR u
ENCODING 117
SWIDTH 501 0
DWIDTH 7 0
BBX 7 7 0 0
BITMAP
A1000300
B0000D00
A1000E00
76003F00
1C11BC40
04DC3390
00000050
ENDCHAR
STARTCHAR v
ENCODING 118
SWIDTH 389 0
DWIDTH 5 0
BBX 6 6 0 0
BITMAP
200000
A40071
3A03A0
0B2940
03BC00
009700
ENDCHAR
STARTCHAR w
ENCODING 119
SWIDTH 656 0
DWIDTH 9 0
BBX 9 6 0 0
BITMAP
4200000000
B100300820
B000B10390
A100C401B0
4806EA17A0
07DB26BB20
ENDCHAR
STARTCHAR x
ENCODING 120
SWIDTH 448 0
DWIDTH 6 0
BBX 7 7 0 -1
BITMAP
30000410
96009800
0B9B4000
01F90000
084B7000
2601C600
00001700
ENDCHAR
STARTCHAR y
ENCODING 121
SWIDTH 487 0
DWIDTH 7 0
BBX 7 14 0 -7
BITMAP
00000100
70000700
A0000920
93000840
48000960
09527E80
007A5180
00000190
00000280
00000370
10000550
48000920
0AA24B00
005BB200
ENDCHAR
STARTCHAR z
ENCODING 122
SWIDTH 459 0
DWIDTH 6 0
BBX 6 8 0 0
BITMAP
013200
8B8A60
2001A0
000570
4BDDA3
01C200
097026
08EDC6
ENDCHAR
STARTCHAR braceleft
ENCODING 123
SWIDTH 393 0
DWIDTH 6 0
BBX 6 15 0 -2
BITMAP
002650
08A481
780000
A10000
820000
2C5000
02CD20
17B980
440590
003C20
05A100
0B0000
0B0000
09A683
005530
ENDCHAR
STARTCHAR bar
ENCODING 124
SWIDTH 149 0
DWIDTH 2 0
BBX 2 9 0 0
BITMAP
70
81
55
37
29
1A
1B
1B
0A
ENDCHAR
STARTCHAR braceright
ENCODING 125
SWIDTH 440 0
DWIDTH 6 0
BBX 6 18 0 -4
BITMAP
122100
CA8B70
3400D1
0001D0
001C40
01B200
067000
03FDB0
048000
01B300
001A20
0002A0
000074
000019
00000A
800058
6C8AB1
012100
ENDCHAR
STARTCHAR asciitilde
ENCODING 126
SWIDTH 402 0
DWIDTH 6 0
BBX 6 3 0 5
BITMAP
283051
927B60
200000
ENDCHAR
STARTCHAR nonbreakingspace
ENCODING 160
SWIDTH 375 0
DWIDTH 5 0
BBX 1 1 0 0
BITMAP
00
ENDCHAR
STARTCHAR exclamdown
ENCODING 161
SWIDTH 149 0
DWIDTH 2 0
BBX 2 10 0 -1
BITMAP
9A
01
00
55
65
64
64
64
63
21
ENDCHAR
STARTCHAR cent
ENCODING 162
SWIDTH 449 0
DWIDTH 6 0
BBX 6 9 0 -1
BITMAP
002100
004700
08ADA0
570B60
A20C00
A20C00
6A1C00
09EEA7
000700
ENDCHAR
STARTCHAR sterling
ENCODING 163
SWIDTH 758 0
DWIDTH 11 0
BBX 11 11 0 0
BITMAP
000000001000
0000008CB900
000004700820
000009000110
00004C442000
019BEE883000
001074000000
000090000000
000290000000
9DCDCA810000
8FC645510000
ENDCHAR
STARTCHAR currency
ENCODING 164
SWIDTH 618 0
DWIDTH 9 0
BBX 8 8 0 0
BITMAP
31000001
2C5ADD89
05D402B2
08300018
08200047
04A003C2
089AAAA0
06000052
ENDCHAR
STARTCHAR yen
ENCODING 165
SWIDTH 389 0
DWIDTH 5 0
BBX 6 12 0 -1
BITMAP
210000
3A0056
0B01C1
054780
00BC10
007800
58CB50
008610
4BEC50
00B200
00D100
001000
ENDCHAR
STARTCHAR brokenbar
ENCODING 166
SWIDTH 117 0
DWIDTH 2 0
BBX 2 8 0 0
BITMAP
92
93
92
51
A2
A3
93
72
ENDCHAR
STARTCHAR section
ENCODING 167
SWIDTH 514 0
DWIDTH 7 0
BBX 7 10 0 0
BITMAP
00330000
0CA9C700
2A000830
09A75300
4C7659A0
670000D0
1AB99C80
00123970
371003B0
06BBCC30
ENDCHAR
STARTCHAR dieresis
ENCODING 168
SWIDTH 397 0
DWIDTH 6 0
BBX 4 2 1 6
BITMAP
3031
D3B6
ENDCHAR
STARTCHAR copyright
ENCODING 169
SWIDTH 667 0
DWIDTH 9 0
BBX 10 8 0 0
BITMAP
006BB93000
076047C700
29097B3A50
64640321B0
7392000091
58770110A1
0B77ABA890
019DBBA500
ENDCHAR
STARTCHAR ordfeminine
ENCODING 170
SWIDTH 266 0
DWIDTH 4 0
BBX 4 4 0 3
BITMAP
0640
1481
6265
5772
ENDCHAR
STARTCHAR guillemotleft
ENCODING 171
SWIDTH 755 0
DWIDTH 11 0
BBX 10 7 0 0
BITMAP
0000000035
0000183991
0003B7B400
0089891000
2B46F74200
BD86668AC2
0367AB0010
ENDCHAR
STARTCHAR logicalnot
ENCODING 172
SWIDTH 369 0
DWIDTH 5 0
BBX 5 3 0 3
BITMAP
499980
1222B0
000050
ENDCHAR
STARTCHAR hyphen_
ENCODING 173
SWIDTH 375 0
DWIDTH 5 0
BBX 5 2 0 3
BITMAP
156730
686550
ENDCHAR
STARTCHAR registered
ENCODING 174
SWIDTH 708 0
DWIDTH 10 0
BBX 10 8 0 0
BITMAP
009BCC7000
0954549B00
28A745B770
740B45C0B0
740AB40082
3B087800A1
08B514BB60
005BBA6100
ENDCHAR
STARTCHAR macron
ENCODING 175
SWIDTH 287 0
DWIDTH 4 0
BBX 4 2 0 6
BITMAP
2787
3645
ENDCHAR
STARTCHAR degree
ENCODING 176
SWIDTH 254 0
DWIDTH 4 0
BBX 3 4 0 4
BITMAP
4870
5060
5070
5860
ENDCHAR
STARTCHAR plusminus
ENCODING 177
SWIDTH 459 0
DWIDTH 6 0
BBX 7 7 0 0
BITMAP
00610000
00840000
018B5400
7AAE8810
001C0000
025D8600
28654400
ENDCHAR
STARTCHAR twosuperior
ENCODING 178
SWIDTH 296 0
DWIDTH 4 0
BBX 4 5 0 3
BITMAP
0260
0343
0034
3161
9BA4
ENDCHAR
STARTCHAR threesuperior
ENCODING 179
SWIDTH 204 0
DWIDTH 3 0
BBX 3 5 0 4
BITMAP
6610
1430
5B10
3070
6870
ENDCHAR
STARTCHAR acute
ENCODING 180
SWIDTH 180 0
DWIDTH 3 0
BBX 3 3 0 5
BITMAP
0520
7800
4000
ENDCHAR
STARTCHAR mu
ENCODING 181
SWIDTH 501 0
DWIDTH 7 0
BBX 7 8 0 -1
BITMAP
50000000
B0000900
B0000E00
C3001F00
C9007F10
BC87C970
B16712A0
90000000
ENDCHAR
STARTCHAR paragraph
ENCODING 182
SWIDTH 413 0
DWIDTH 6 0
BBX 6 9 0 -1
BITMAP
002210
2DFFE0
9FFEB2
AFFD83
154C84
000B94
000B94
000B82
000220
ENDCHAR
STARTCHAR periodcentered
ENCODING 183
SWIDTH 212 0
DWIDTH 3 0
BBX 3 2 0 2
BITMAP
2F40
1710
ENDCHAR
STARTCHAR cedilla
ENCODING 184
SWIDTH 445 0
DWIDTH 6 0
BBX 4 6 2 -5
BITMAP
2000
9000
4971
103A
7968
0330
ENDCHAR
STARTCHAR onesuperior
ENCODING 185
SWIDTH 197 0
DWIDTH 3 0
BBX 4 6 -1 3
BITMAP
0003
0027
01C5
1983
0181
0070
ENDCHAR
STARTCHAR ordmasculine
ENCODING 186
SWIDTH 254 0
DWIDTH 4 0
BBX 3 4 0 4
BITMAP
4870
5060
5070
5860
ENDCHAR
STARTCHAR guillemotright
ENCODING 187
SWIDTH 659 0
DWIDTH 9 0
BBX 9 7 0 0
BITMAP
4205700000
3C837C8410
005AD65B90
0001C43C30
003C56B200
07B3A80000
7804400000
ENDCHAR
STARTCHAR onequarter
ENCODING 188
SWIDTH 626 0
DWIDTH 9 0
BBX 8 11 0 0
BITMAP
00004000
00208000
00807000
06A45000
57881000
13690100
03497200
00458007
0081815C
00A0296A
01600009
ENDCHAR
STARTCHAR onehalf
ENCODING 189
SWIDTH 566 0
DWIDTH 8 0
BBX 8 11 0 -1
BITMAP
00404000
00908000
04C08000
3AB36000
82973550
037A0580
034A0062
00460080
00866270
00B4CBA3
01600000
ENDCHAR
STARTCHAR threequarters
ENCODING 190
SWIDTH 566 0
DWIDTH 8 0
BBX 8 11 0 -1
BITMAP
00005000
67308000
03508000
3A427000
30755200
48897101
00096017
002864A5
00640756
00A00017
00700000
ENDCHAR
STARTCHAR questiondown
ENCODING 191
SWIDTH 272 0
DWIDTH 4 0
BBX 4 11 0 -1
BITMAP
6400
0000
0000
2410
27D0
06A0
1D20
7700
9300
4A47
0263
ENDCHAR
STARTCHAR Agrave
ENCODING 192
SWIDTH 562 0
DWIDTH 8 0
BBX 8 13 0 0
BITMAP
00091000
00039000
00597000
06616A00
09000750
270001A0
350000A0
44000093
8C9887C5
57001276
38000057
2A000067
0A000085
ENDCHAR
STARTCHAR Aacute
ENCODING 193
SWIDTH 562 0
DWIDTH 8 0
BBX 8 13 0 0
BITMAP
00060000
00A60000
00997000
06616A00
09000750
270001A0
350000A0
44000093
8C9887C5
57001276
38000057
2A000067
0A000085
ENDCHAR
STARTCHAR Acircumflex
ENCODING 194
SWIDTH 562 0
DWIDTH 8 0
BBX 8 14 0 0
BITMAP
00020000
001E4000
00A9E200
0399C300
06616A00
09000750
270001A0
350000A0
44000093
8C9887C5
57001276
38000057
2A000067
0A000085
ENDCHAR
STARTCHAR Atilde
ENCODING 195
SWIDTH 562 0
DWIDTH 8 0
BBX 8 13 0 0
BITMAP
03820600
0A19B400
02597000
06616A00
09000750
270001A0
350000A0
44000093
8C9887C5
57001276
38000057
2A000067
0A000085
ENDCHAR
STARTCHAR Adieresis
ENCODING 196
SWIDTH 562 0
DWIDTH 8 0
BBX 8 13 0 0
BITMAP
00403100
00D3B500
00597000
06616A00
09000750
270001A0
350000A0
44000093
8C9887C5
57001276
38000057
2A000067
0A000085
ENDCHAR
STARTCHAR Aring
ENCODING 197
SWIDTH 562 0
DWIDTH 8 0
BBX 8 13 0 0
BITMAP
00475000
00708000
008EA000
06616A00
09000750
270001A0
350000A0
44000093
8C9887C5
57001276
38000057
2A000067
0A000085
ENDCHAR
STARTCHAR AE
ENCODING 198
SWIDTH 960 0
DWIDTH 13 0
BBX 14 11 0 0
BITMAP
00597000000000
06616A00000000
0900075AA99960
270001BB222120
350000BB000000
4400009B135840
8C9887CD875300
57001278000000
38000057000000
2A000068001330
0A00008BDEED91
ENDCHAR
STARTCHAR Ccedilla
ENCODING 199
SWIDTH 515 0
DWIDTH 7 0
BBX 7 14 0 -5
BITMAP
002AD600
02B34400
0A100000
54000000
90000000
A0000000
92000000
3A002550
07EDA720
00A00000
00795000
00107500
00A69400
00042000
ENDCHAR
STARTCHAR Egrave
ENCODING 200
SWIDTH 524 0
DWIDTH 7 0
BBX 7 11 0 0
BITMAP
00370000
00075000
5A999820
86322220
84000000
84136810
AB975100
A1000000
B1000000
A1001210
4CEFEC50
ENDCHAR
STARTCHAR Eacute
ENCODING 201
SWIDTH 524 0
DWIDTH 7 0
BBX 7 11 0 0
BITMAP
00033000
005A0000
5AD99820
86322220
84000000
84136810
AB975100
A1000000
B1000000
A1001210
4CEFEC50
ENDCHAR
STARTCHAR Ecircumflex
ENCODING 202
SWIDTH 524 0
DWIDTH 7 0
BBX 7 13 0 0
BITMAP
00020000
000B8000
007AD500
01702500
5A999820
86322220
84000000
84136810
AB975100
A1000000
B1000000
A1001210
4CEFEC50
ENDCHAR
STARTCHAR Edieresis
ENCODING 203
SWIDTH 524 0
DWIDTH 7 0
BBX 7 11 0 0
BITMAP
00403100
01E2D400
5A999820
86322220
84000000
84136810
AB975100
A1000000
B1000000
A1001210
4CEFEC50
ENDCHAR
STARTCHAR Igrave
ENCODING 204
SWIDTH 167 0
DWIDTH 2 0
BBX 4 11 -1 0
BITMAP
2800
0570
0000
0600
0920
0650
0280
00B0
00C0
00C0
0091
ENDCHAR
STARTCHAR Iacute
ENCODING 205
SWIDTH 167 0
DWIDTH 2 0
BBX 4 11 -1 0
BITMAP
0160
1C30
2200
0600
0920
0650
0280
00B0
00C0
00C0
0091
ENDCHAR
STARTCHAR Icircumflex
ENCODING 206
SWIDTH 167 0
DWIDTH 2 0
BBX 5 13 -1 0
BITMAP
002000
03E200
2C9C00
530710
000000
060000
092000
065000
028000
00B000
00C000
00C000
009100
ENDCHAR
STARTCHAR Idieresis
ENCODING 207
SWIDTH 167 0
DWIDTH 2 0
BBX 5 10 -2 0
BITMAP
130400
5C2E10
006000
009200
006500
002800
000B00
000C00
000C00
000910
ENDCHAR
STARTCHAR Eth
ENCODING 208
SWIDTH 741 0
DWIDTH 10 0
BBX 10 10 0 -1
BITMAP
39BB951000
4301E6B600
0000C008A0
0000A32086
0009ECB61C
000056000C
000049003C
00013503D4
0005EBCC40
0000021000
ENDCHAR
STARTCHAR Ntilde
ENCODING 209
SWIDTH 609 0
DWIDTH 9 0
BBX 9 10 0 0
BITMAP
0057115000
0192AB2000
3220000000
670000B100
5B0000A700
6F20002C00
7A90000B10
83A3000A10
941C514B00
84019CA200
ENDCHAR
STARTCHAR Ograve
ENCODING 210
SWIDTH 609 0
DWIDTH 9 0
BBX 9 10 0 0
BITMAP
0004600000
0000840000
0000000000
04A9500000
49127B4000
910001B400
A000001C00
8500000B10
1D50005C00
02ACBB7100
ENDCHAR
STARTCHAR Oacute
ENCODING 211
SWIDTH 609 0
DWIDTH 9 0
BBX 9 10 0 0
BITMAP
0000600000
000A500000
0004000000
04A9500000
49127B4000
910001B400
A000001C00
8500000B10
1D50005C00
02ACBB7100
ENDCHAR
STARTCHAR Ocircumflex
ENCODING 212
SWIDTH 609 0
DWIDTH 9 0
BBX 9 11 0 0
BITMAP
0011000000
006D100000
03CAA00000
0620700000
04A9500000
49127B4000
910001B400
A000001C00
8500000B10
1D50005C00
02ACBB7100
ENDCHAR
STARTCHAR Otilde
ENCODING 213
SWIDTH 609 0
DWIDTH 9 0
BBX 9 10 0 0
BITMAP
0382060000
0918B40000
0200000000
04A9500000
49127B4000
910001B400
A000001C00
8500000B10
1D50005C00
02ACBB7100
ENDCHAR
STARTCHAR Odieresis
ENCODING 214
SWIDTH 609 0
DWIDTH 9 0
BBX 9 10 0 0
BITMAP
0013030000
006B3D0000
0000000000
04A9500000
49127B4000
910001B400
A000001C00
8500000B10
1D50005C00
02ACBB7100
ENDCHAR
STARTCHAR multiply
ENCODING 215
SWIDTH 448 0
DWIDTH 6 0
BBX 5 5 0 0
BITMAP
150050
0A8B50
01F800
0A4A30
010000
ENDCHAR
STARTCHAR Oslash
ENCODING 216
SWIDTH 609 0
DWIDTH 9 0
BBX 9 11 0 -2
BITMAP
0000090000
0000370000
04A9A40000
4913DC4000
910491B400
A009401C00
850D000B10
1D98005C00
02ECBB7100
02B0000000
0120000000
ENDCHAR
STARTCHAR Ugrave
ENCODING 217
SWIDTH 571 0
DWIDTH 8 0
BBX 8 10 0 0
BITMAP
00064000
0001A100
25000120
82000570
91000590
810002A0
640000C0
380001E4
0B403BB9
02CE9106
ENDCHAR
STARTCHAR Uacute
ENCODING 218
SWIDTH 571 0
DWIDTH 8 0
BBX 8 10 0 0
BITMAP
00016000
001C3000
25220120
82000570
91000590
810002A0
640000C0
380001E4
0B403BB9
02CE9106
ENDCHAR
STARTCHAR Ucircumflex
ENCODING 219
SWIDTH 571 0
DWIDTH 8 0
BBX 8 13 0 0
BITMAP
00011000
0006C100
003CBA00
00610700
00000000
25000120
82000570
91000590
810002A0
640000C0
380001E4
0B403BB9
02CE9106
ENDCHAR
STARTCHAR Udieresis
ENCODING 220
SWIDTH 571 0
DWIDTH 8 0
BBX 8 10 0 0
BITMAP
00211200
00A77A00
25000120
82000570
91000590
810002A0
640000C0
380001E4
0B403BB9
02CE9106
ENDCHAR
STARTCHAR Yacute
ENCODING 221
SWIDTH 403 0
DWIDTH 6 0
BBX 6 13 0 -1
BITMAP
000250
003B10
003100
900023
770064
0B60C1
008DC0
000850
000B10
001A00
003800
003800
000100
ENDCHAR
STARTCHAR Thorn
ENCODING 222
SWIDTH 497 0
DWIDTH 7 0
BBX 7 12 0 -3
BITMAP
24000000
59000000
48000000
47000000
3CA95000
3D238C10
2A000580
1E300690
0DACCB20
0B000000
0B000000
01000000
ENDCHAR
STARTCHAR germandbls
ENCODING 223
SWIDTH 590 0
DWIDTH 8 0
BBX 8 12 0 -2
BITMAP
2A960000
8935B100
86009300
6716A000
486EB200
19016C60
0A000085
0900000D
0902237C
0B089850
0E000000
1B100000
ENDCHAR
STARTCHAR agrave
ENCODING 224
SWIDTH 505 0
DWIDTH 7 0
BBX 7 9 0 0
BITMAP
00540000
000A2000
00BC6000
0010A600
00441D10
3C86AF60
A2000890
86001360
08CEEA40
ENDCHAR
STARTCHAR aacute
ENCODING 225
SWIDTH 505 0
DWIDTH 7 0
BBX 7 10 0 0
BITMAP
00043000
00690000
00400000
00BC6000
0010A600
00441D10
3C86AF60
A2000890
86001360
08CEEA40
ENDCHAR
STARTCHAR acircumflex
ENCODING 226
SWIDTH 505 0
DWIDTH 7 0
BBX 7 11 0 0
BITMAP
00020000
000D6000
0099E300
02604400
00BC6000
0010A600
00441D10
3C86AF60
A2000890
86001360
08CEEA40
ENDCHAR
STARTCHAR atilde
ENCODING 227
SWIDTH 505 0
DWIDTH 7 0
BBX 7 10 0 0
BITMAP
04710600
0A29B300
02000000
00BC6000
0010A600
00441D10
3C86AF60
A2000890
86001360
08CEEA40
ENDCHAR
STARTCHAR adieresis
ENCODING 228
SWIDTH 505 0
DWIDTH 7 0
BBX 7 10 0 0
BITMAP
00403000
02E1D400
00000000
00BC6000
0010A600
00441D10
3C86AF60
A2000890
86001360
08CEEA40
ENDCHAR
STARTCHAR aring
ENCODING 229
SWIDTH 505 0
DWIDTH 7 0
BBX 7 10 0 0
BITMAP
00010000
00667000
00747000
00BE6000
0010A600
00441D10
3C86AF60
A2000890
86001360
08CEEA40
ENDCHAR
STARTCHAR ae
ENCODING 230
SWIDTH 881 0
DWIDTH 12 0
BBX 12 8 0 -1
BITMAP
00BC6019A910
0010A6A30660
00441E800570
3C86AF869B10
A20007A42000
860013C20000
08CEEA5BB997
000000002430
ENDCHAR
STARTCHAR ccedilla
ENCODING 231
SWIDTH 449 0
DWIDTH 6 0
BBX 6 12 0 -5
BITMAP
001200
07A8A0
580050
A20000
A20000
5A1000
07ECB8
00A000
006970
012075
00A893
000210
ENDCHAR
STARTCHAR egrave
ENCODING 232
SWIDTH 515 0
DWIDTH 7 0
BBX 7 10 0 0
BITMAP
00820000
002A0000
00130000
07A8A000
4800A100
9202C100
B7AA2000
84000000
1B400000
02ADDB40
ENDCHAR
STARTCHAR eacute
ENCODING 233
SWIDTH 515 0
DWIDTH 7 0
BBX 7 10 0 0
BITMAP
00061000
00970000
00630000
07A8A000
4800A100
9202C100
B7AA2000
84000000
1B400000
02ADDB40
ENDCHAR
STARTCHAR ecircumflex
ENCODING 234
SWIDTH 515 0
DWIDTH 7 0
BBX 7 11 0 0
BITMAP
00020000
000C7000
0089E400
02833400
07A8A000
4800A100
9202C100
B7AA2000
84000000
1B400000
02ADDB40
ENDCHAR
STARTCHAR edieresis
ENCODING 235
SWIDTH 515 0
DWIDTH 7 0
BBX 7 9 0 0
BITMAP
01304000
05D5E100
07A8A000
4800A100
9202C100
B7AA2000
84000000
1B400000
02ADDB40
ENDCHAR
STARTCHAR igrave
ENCODING 236
SWIDTH 174 0
DWIDTH 2 0
BBX 3 9 0 0
BITMAP
3000
5B00
0400
2800
2900
1C00
0E00
0D10
0920
ENDCHAR
STARTCHAR iacute
ENCODING 237
SWIDTH 174 0
DWIDTH 2 0
BBX 4 9 -1 0
BITMAP
0170
0B40
1310
0280
0290
01C0
00E0
00D1
0092
ENDCHAR
STARTCHAR icircumflex
ENCODING 238
SWIDTH 174 0
DWIDTH 2 0
BBX 5 11 -1 0
BITMAP
002000
03E200
1C9D00
530610
001000
028000
029000
01C000
00E000
00D100
009200
ENDCHAR
STARTCHAR idieresis
ENCODING 239
SWIDTH 174 0
DWIDTH 2 0
BBX 4 9 -1 0
BITMAP
1101
996C
1111
0280
0290
01C0
00E0
00D1
0092
ENDCHAR
STARTCHAR eth
ENCODING 240
SWIDTH 407 0
DWIDTH 6 0
BBX 6 9 0 -1
BITMAP
252000
66C655
019ED2
0161C1
1B89D5
840047
940075
2BBBB0
001200
ENDCHAR
STARTCHAR ntilde
ENCODING 241
SWIDTH 459 0
DWIDTH 6 0
BBX 7 9 0 0
BITMAP
18404200
826B8000
20000000
24BC8000
9C109600
96002C00
76000C10
59000B20
0A000A10
ENDCHAR
STARTCHAR ograve
ENCODING 242
SWIDTH 487 0
DWIDTH 7 0
BBX 7 8 0 0
BITMAP
00370000
00075000
03ACD400
3A103C10
A1000650
A1000850
69006D10
07CCA200
ENDCHAR
STARTCHAR oacute
ENCODING 243
SWIDTH 487 0
DWIDTH 7 0
BBX 7 9 0 0
BITMAP
00042000
00790000
00400000
03ACD400
3A103C10
A1000650
A1000850
69006D10
07CCA200
ENDCHAR
STARTCHAR ocircumflex
ENCODING 244
SWIDTH 487 0
DWIDTH 7 0
BBX 7 10 0 0
BITMAP
00020000
002E3000
01B9D100
04406200
03ACD400
3A103C10
A1000650
A1000850
69006D10
07CCA200
ENDCHAR
STARTCHAR otilde
ENCODING 245
SWIDTH 487 0
DWIDTH 7 0
BBX 7 8 0 0
BITMAP
04720600
0A29B300
05ACD400
3A103C10
A1000650
A1000850
69006D10
07CCA200
ENDCHAR
STARTCHAR odieresis
ENCODING 246
SWIDTH 487 0
DWIDTH 7 0
BBX 7 8 0 0
BITMAP
00304000
04D2E200
03ACD400
3A103C10
A1000650
A1000850
69006D10
07CCA200
ENDCHAR
STARTCHAR divide
ENCODING 247
SWIDTH 335 0
DWIDTH 5 0
BBX 5 4 0 1
BITMAP
007000
3ACA10
110000
005000
ENDCHAR
STARTCHAR oslash
ENCODING 248
SWIDTH 487 0
DWIDTH 7 0
BBX 7 7 0 0
BITMAP
00002200
018BD400
2B45BC10
921C1750
A0A50850
6BA05D10
1DCCB200
ENDCHAR
STARTCHAR ugrave
ENCODING 249
SWIDTH 501 0
DWIDTH 7 0
BBX 7 10 0 0
BITMAP
01810000
00480000
00000000
A1000300
B0000D00
A1000E00
76003F00
1C11BC40
04DC3390
00000050
ENDCHAR
STARTCHAR uacute
ENCODING 250
SWIDTH 501 0
DWIDTH 7 0
BBX 7 10 0 0
BITMAP
00043000
00690000
00400000
A1000300
B0000D00
A1000E00
76003F00
1C11BC40
04DC3390
00000050
ENDCHAR
STARTCHAR ucircumflex
ENCODING 251
SWIDTH 501 0
DWIDTH 7 0
BBX 7 11 0 0
BITMAP
00020000
000D5000
0099E300
02504400
A1000300
B0000D00
A1000E00
76003F00
1C11BC40
04DC3390
00000050
ENDCHAR
STARTCHAR udieresis
ENCODING 252
SWIDTH 501 0
DWIDTH 7 0
BBX 7 9 0 0
BITMAP
01213000
07A4C000
A1000300
B0000D00
A1000E00
76003F00
1C11BC40
04DC3390
00000050
ENDCHAR
STARTCHAR yacute
ENCODING 253
SWIDTH 487 0
DWIDTH 7 0
BBX 7 17 0 -7
BITMAP
00052000
00780000
00400000
00000100
70000700
A0000920
93000840
48000960
09527E80
007A5180
00000190
00000280
00000370
10000550
48000920
0AA24B00
005BB200
ENDCHAR
STARTCHAR thorn
ENCODING 254
SWIDTH 520 0
DWIDTH 7 0
BBX 7 10 0 -3
BITMAP
46000000
64022000
7AC9AC20
790002C0
860000D0
8EC99C90
94243200
94000000
84000000
43000000
ENDCHAR
STARTCHAR ydieresis
ENCODING 255
SWIDTH 487 0
DWIDTH 7 0
BBX 7 16 0 -7
BITMAP
01303000
07A4D000
00000100
70000700
A0000920
93000840
48000960
09527E80
007A5180
00000190
00000280
00000370
10000550
48000920
0AA24B00
005BB200
ENDCHAR
STARTCHAR Amacron
ENCODING 256
SWIDTH 562 0
DWIDTH 8 0
BBX 8 13 0 0
BITMAP
01788100
02645100
00597000
06616A00
09000750
270001A0
350000A0
44000093
8C9887C5
57001276
38000057
2A000067
0A000085
ENDCHAR
STARTCHAR amacron
ENCODING 257
SWIDTH 505 0
DWIDTH 7 0
BBX 7 10 0 0
BITMAP
01787000
03645100
00000000
00BC6000
0010A600
00441D10
3C86AF60
A2000890
86001360
08CEEA40
ENDCHAR
STARTCHAR Abreve
ENCODING 258
SWIDTH 562 0
DWIDTH 8 0
BBX 8 13 0 0
BITMAP
00368200
00043000
00597000
06616A00
09000750
270001A0
350000A0
44000093
8C9887C5
57001276
38000057
2A000067
0A000085
ENDCHAR
STARTCHAR abreve
ENCODING 259
SWIDTH 505 0
DWIDTH 7 0
BBX 7 9 0 0
BITMAP
00857000
00240000
00BC6000
0010A600
00441D10
3C86AF60
A2000890
86001360
08CEEA40
ENDCHAR
STARTCHAR Aogonek
ENCODING 260
SWIDTH 562 0
DWIDTH 8 0
BBX 8 13 0 -2
BITMAP
00597000
06616A00
09000750
270001A0
350000A0
44000093
8C9887C5
57001276
38000057
2A000067
0A0002B5
00000B20
00000885
ENDCHAR
STARTCHAR aogonek
ENCODING 261
SWIDTH 505 0
DWIDTH 7 0
BBX 7 9 0 -2
BITMAP
00BC6000
0010A600
00441D10
3C86AF60
A2000890
86001360
08CEFA40
0001A000
00006740
ENDCHAR
STARTCHAR Cacute
ENCODING 262
SWIDTH 515 0
DWIDTH 7 0
BBX 7 12 0 0
BITMAP
00006000
000A6000
00040000
002AD600
02B34400
0A100000
54000000
90000000
A0000000
92000000
3A002550
07EDA720
ENDCHAR
STARTCHAR cacute
ENCODING 263
SWIDTH 449 0
DWIDTH 6 0
BBX 6 10 0 0
BITMAP
000340
004B10
004000
000000
05AA80
490070
A20000
A20000
5A1000
07CCB8
ENDCHAR
STARTCHAR Ccircumflex
ENCODING 264
SWIDTH 515 0
DWIDTH 7 0
BBX 7 13 0 0
BITMAP
00020000
000C7000
0089E400
02603400
002AD600
02B34400
0A100000
54000000
90000000
A0000000
92000000
3A002550
07EDA720
ENDCHAR
STARTCHAR ccircumflex
ENCODING 265
SWIDTH 449 0
DWIDTH 6 0
BBX 6 11 0 0
BITMAP
000200
004D10
02CAC0
052070
000000
05AA80
490070
A20000
A20000
5A1000
07CCB8
ENDCHAR
STARTCHAR Cdotaccent
ENCODING 266
SWIDTH 515 0
DWIDTH 7 0
BBX 7 11 0 0
BITMAP
00071000
00051000
002AD600
02B34400
0A100000
54000000
90000000
A0000000
92000000
3A002550
07EDA720
ENDCHAR
STARTCHAR cdotaccent
ENCODING 267
SWIDTH 449 0
DWIDTH 6 0
BBX 6 8 0 0
BITMAP
004400
002400
05AA80
490070
A20000
A20000
5A1000
07CCB8
ENDCHAR
STARTCHAR Ccaron
ENCODING 268
SWIDTH 515 0
DWIDTH 7 0
BBX 7 12 0 0
BITMAP
00330600
0007D600
00001000
002AD600
02B34400
0A100000
54000000
90000000
A0000000
92000000
3A002550
07EDA720
ENDCHAR
STARTCHAR ccaron
ENCODING 269
SWIDTH 449 0
DWIDTH 6 0
BBX 6 9 0 0
BITMAP
043060
008D50
000100
05AA80
490070
A20000
A20000
5A1000
07CCB8
ENDCHAR
STARTCHAR Dcaron
ENCODING 270
SWIDTH 741 0
DWIDTH 10 0
BBX 10 12 0 -1
BITMAP
0003306000
00007D6000
39BB961000
4300E6B600
0000B008A0
0000830086
000075001C
000067000C
000058003C
00012503D4
0005EBCC40
0000021000
ENDCHAR
STARTCHAR dcaron
ENCODING 271
SWIDTH 582 0
DWIDTH 8 0
BBX 8 11 0 0
BITMAP
00000001
0000550A
00004D0C
00001F2B
00000B51
09FC4970
6C229E90
A4000AA0
A3001EC0
6903C6D0
0AEB3050
ENDCHAR
STARTCHAR Dcroat
ENCODING 272
SWIDTH 741 0
DWIDTH 10 0
BBX 10 10 0 -1
BITMAP
39BB951000
4300E6B600
0000B008A0
0000820086
0009DD401C
000368100C
000058003C
00012503D4
0005EBCC40
0000021000
ENDCHAR
STARTCHAR dcroat
ENCODING 273
SWIDTH 524 0
DWIDTH 7 0
BBX 8 10 0 0
BITMAP
00006700
00016E40
000BAEA3
01410A60
1DDD9A80
79005E90
A3000AA0
A3002EC0
5904C6D0
09EB3040
ENDCHAR
STARTCHAR Emacron
ENCODING 274
SWIDTH 524 0
DWIDTH 7 0
BBX 7 11 0 0
BITMAP
00688100
02745200
5A999820
86322220
84000000
84136810
AB975100
A1000000
B1000000
A1001210
4CEFEC50
ENDCHAR
STARTCHAR emacron
ENCODING 275
SWIDTH 515 0
DWIDTH 7 0
BBX 7 10 0 0
BITMAP
00688100
02745200
00130000
07A8A000
4800A100
9202C100
B7AA2000
84000000
1B400000
02ADDB40
ENDCHAR
STARTCHAR Ebreve
ENCODING 276
SWIDTH 524 0
DWIDTH 7 0
BBX 7 11 0 0
BITMAP
00749000
00151000
5A999820
86322220
84000000
84136810
AB975100
A1000000
B1000000
A1001210
4CEFEC50
ENDCHAR
STARTCHAR ebreve
ENCODING 277
SWIDTH 515 0
DWIDTH 7 0
BBX 7 9 0 0
BITMAP
00459100
00273000
07A8A000
4800A100
9202C100
B7AA2000
84000000
1B400000
02ADDB40
ENDCHAR
STARTCHAR Edotaccent
ENCODING 278
SWIDTH 524 0
DWIDTH 7 0
BBX 7 11 0 0
BITMAP
00080000
00060000
5A999820
86322220
84000000
84136810
AB975100
A1000000
B1000000
A1001210
4CEFEC50
ENDCHAR
STARTCHAR edotaccent
ENCODING 279
SWIDTH 515 0
DWIDTH 7 0
BBX 7 10 0 0
BITMAP
00440000
00240000
00130000
07A8A000
4800A100
9202C100
B7AA2000
84000000
1B400000
02ADDB40
ENDCHAR
STARTCHAR Eogonek
ENCODING 280
SWIDTH 524 0
DWIDTH 7 0
BBX 7 11 0 -2
BITMAP
5A999820
86322220
84000000
84136810
AB975100
A1000000
B1000000
A1001210
4CEFFD50
00048000
0002A720
ENDCHAR
STARTCHAR eogonek
ENCODING 281
SWIDTH 515 0
DWIDTH 7 0
BBX 7 10 0 -2
BITMAP
00130000
07A8A000
4800A100
9202C100
B7AA2000
84000000
1B400000
029DDB40
00066000
00039710
ENDCHAR
STARTCHAR Ecaron
ENCODING 282
SWIDTH 524 0
DWIDTH 7 0
BBX 7 11 0 0
BITMAP
00503400
002CB100
5A9A9820
86322220
84000000
84136810
AB975100
A1000000
B1000000
A1001210
4CEFEC50
ENDCHAR
STARTCHAR ecaron
ENCODING 283
SWIDTH 515 0
DWIDTH 7 0
BBX 7 10 0 0
BITMAP
01503300
003CA100
00140000
07A8A000
4800A100
9202C100
B7AA2000
84000000
1B400000
02ADDB40
ENDCHAR
STARTCHAR Gcircumflex
ENCODING 284
SWIDTH 571 0
DWIDTH 8 0
BBX 8 13 0 -1
BITMAP
00000200
00004D10
0002CAC0
00052070
00000330
0018A892
02A30000
1B110000
6505BBD4
73000065
490003C5
06CB97A5
00000049
ENDCHAR
STARTCHAR gcircumflex
ENCODING 285
SWIDTH 366 0
DWIDTH 5 0
BBX 8 18 -2 -7
BITMAP
00002000
0000D600
00089E30
00260340
00000000
00019A10
000B3560
006502A0
00A103D0
00884BE0
0008A5E0
000000D0
000000B1
000000A2
800000A1
940000C0
1BB526A0
0049CA10
ENDCHAR
STARTCHAR Gbreve
ENCODING 286
SWIDTH 571 0
DWIDTH 8 0
BBX 8 10 0 -1
BITMAP
00268300
00044330
0018A892
02A30000
1B110000
6505BBD4
73000065
490003C5
06CB97A5
00000049
ENDCHAR
STARTCHAR gbreve
ENCODING 287
SWIDTH 366 0
DWIDTH 5 0
BBX 8 15 -2 -7
BITMAP
00064900
00015100
00019A10
000B3560
006502A0
00A103D0
00884BE0
0008A5E0
000000D0
000000B1
000000A2
800000A1
940000C0
1BB526A0
0049CA10
ENDCHAR
STARTCHAR Gdotaccent
ENCODING 288
SWIDTH 571 0
DWIDTH 8 0
BBX 8 10 0 -1
BITMAP
00005200
00004630
0018A892
02A30000
1B110000
6505BBD4
73000065
490003C5
06CB97A5
00000049
ENDCHAR
STARTCHAR gdotaccent
ENCODING 289
SWIDTH 366 0
DWIDTH 5 0
BBX 8 15 -2 -7
BITMAP
00008000
00006000
00019A10
000B3560
006502A0
00A103D0
00884BE0
0008A5E0
000000D0
000000B1
000000A2
800000A1
940000C0
1BB526A0
0049CA10
ENDCHAR
STARTCHAR Gcommaaccent
ENCODING 290
SWIDTH 571 0
DWIDTH 8 0
BBX 8 13 0 -5
BITMAP
00000330
0018A892
02A30000
1B110000
6505BBD4
73000065
490003C5
06CB97A5
00000049
00042000
00067000
00076000
00031000
ENDCHAR
STARTCHAR gcommaaccent
ENCODING 291
SWIDTH 366 0
DWIDTH 5 0
BBX 8 20 -2 -7
BITMAP
00001000
0000A000
0000C000
0000A000
00001000
00000000
00000000
00019A10
000B3560
006502A0
00A103D0
00884BE0
0008A5E0
000000D0
000000B1
000000A2
800000A1
940000C0
1BB526A0
0049CA10
ENDCHAR
STARTCHAR Hcircumflex
ENCODING 292
SWIDTH 524 0
DWIDTH 7 0
BBX 7 14 0 0
BITMAP
00020000
000C7000
0089E400
01603500
00000130
71000460
73000460
65000470
47003B70
394B9680
8F820380
1C0002A0
0B0001B0
070000B0
ENDCHAR
STARTCHAR hcircumflex
ENCODING 293
SWIDTH 427 0
DWIDTH 6 0
BBX 7 12 -1 0
BITMAP
00002000
0004E200
262C9C00
0C530700
0B200000
08443000
06EBD600
04700B00
03800640
02A00660
01C00770
00A00740
ENDCHAR
STARTCHAR hbar
ENCODING 295
SWIDTH 427 0
DWIDTH 6 0
BBX 7 10 -1 0
BITMAP
26000000
0C000000
9EC40000
39553000
06EBD600
04700B00
03800640
02A00660
01C00770
00A00740
ENDCHAR
STARTCHAR Itilde
ENCODING 296
SWIDTH 167 0
DWIDTH 2 0
BBX 6 10 -2 0
BITMAP
057115
192AB2
026000
009200
006500
002800
000B00
000C00
000C00
000910
ENDCHAR
STARTCHAR itilde
ENCODING 297
SWIDTH 174 0
DWIDTH 2 0
BBX 6 10 -1 0
BITMAP
020010
7896A1
501410
001000
028000
029000
01C000
00E000
00D100
009200
ENDCHAR
STARTCHAR imacron
ENCODING 299
SWIDTH 174 0
DWIDTH 2 0
BBX 4 9 -1 0
BITMAP
1665
5767
0010
0280
0290
01C0
00E0
00D1
0092
ENDCHAR
STARTCHAR Ibreve
ENCODING 300
SWIDTH 167 0
DWIDTH 2 0
BBX 3 11 0 0
BITMAP
7570
2400
0000
6000
9200
6500
2800
0B00
0C00
0C00
0910
ENDCHAR
STARTCHAR ibreve
ENCODING 301
SWIDTH 174 0
DWIDTH 2 0
BBX 4 9 -1 0
BITMAP
1122
1991
0010
0280
0290
01C0
00E0
00D1
0092
ENDCHAR
STARTCHAR Iogonek
ENCODING 302
SWIDTH 167 0
DWIDTH 2 0
BBX 3 10 0 -2
BITMAP
6000
9200
6500
2800
0B00
0C00
0C00
3D10
B100
9850
ENDCHAR
STARTCHAR iogonek
ENCODING 303
SWIDTH 174 0
DWIDTH 2 0
BBX 4 11 -1 -2
BITMAP
0400
0500
0010
0280
0290
01C0
00E0
00D1
04D2
2B10
1A73
ENDCHAR
STARTCHAR Idotaccent
ENCODING 304
SWIDTH 167 0
DWIDTH 2 0
BBX 4 11 -1 0
BITMAP
1700
0500
0000
0600
0920
0650
0280
00B0
00C0
00C0
0091
ENDCHAR
STARTCHAR dotlessi
ENCODING 305
SWIDTH 174 0
DWIDTH 2 0
BBX 3 7 0 0
BITMAP
0100
2800
2900
1C00
0E00
0D10
0920
ENDCHAR
STARTCHAR Jcircumflex
ENCODING 308
SWIDTH 439 0
DWIDTH 6 0
BBX 7 14 0 0
BITMAP
00002000
0000D700
00089E40
00260340
00006000
00007400
00005700
00003900
00001B00
80000C00
74000C00
09100B00
01A31B00
0019C400
ENDCHAR
STARTCHAR jcircumflex
ENCODING 309
SWIDTH 200 0
DWIDTH 3 0
BBX 6 18 -2 -7
BITMAP
000200
001E40
01B9E1
034053
000000
000400
000B00
000A30
000870
0005A0
0002C0
0000E0
3000C1
6500B1
2C00A2
0790A1
007EC0
000120
ENDCHAR
STARTCHAR Kcommaaccent
ENCODING 310
SWIDTH 468 0
DWIDTH 7 0
BBX 7 14 0 -5
BITMAP
10001000
A0096000
A1880000
77900000
6C000000
5E400000
58C50000
48199100
28004C10
00000000
00250000
002B0000
003A0000
00220000
ENDCHAR
STARTCHAR kcommaaccent
ENCODING 311
SWIDTH 403 0
DWIDTH 6 0
BBX 6 14 0 -5
BITMAP
400000
900000
B00120
931B20
668200
4F4000
3F1000
3EB510
4719D5
000000
005100
009400
00A300
004000
ENDCHAR
STARTCHAR Lacute
ENCODING 313
SWIDTH 346 0
DWIDTH 5 0
BBX 5 11 0 0
BITMAP
000510
008700
004000
130000
570000
750000
930000
A20000
B10000
940000
2BED60
ENDCHAR
STARTCHAR lacute
ENCODING 314
SWIDTH 120 0
DWIDTH 2 0
BBX 3 11 -1 0
BITMAP
0060
1B40
1300
0920
0930
0940
0A40
0A50
0950
0940
0720
ENDCHAR
STARTCHAR Lcommaaccent
ENCODING 315
SWIDTH 346 0
DWIDTH 5 0
BBX 5 13 0 -5
BITMAP
130000
570000
750000
930000
A20000
B10000
940000
2BED60
000000
016000
01C000
01C000
013000
ENDCHAR
STARTCHAR lcommaaccent
ENCODING 316
SWIDTH 120 0
DWIDTH 2 0
BBX 2 13 0 -5
BITMAP
92
93
94
A4
A5
95
94
72
00
51
85
94
40
ENDCHAR
STARTCHAR Lcaron
ENCODING 317
SWIDTH 346 0
DWIDTH 5 0
BBX 5 11 0 0
BITMAP
001000
008100
008400
136500
570100
750000
930000
A20000
B10000
940000
2BED60
ENDCHAR
STARTCHAR lcaron
ENCODING 318
SWIDTH 222 0
DWIDTH 3 0
BBX 3 11 0 0
BITMAP
0010
0090
00C0
92B0
9310
9400
A400
A500
9500
9400
7200
ENDCHAR
STARTCHAR Ldot
ENCODING 319
SWIDTH 346 0
DWIDTH 5 0
BBX 5 8 0 0
BITMAP
130000
570000
750000
930000
A5E200
B27000
940000
2BED60
ENDCHAR
STARTCHAR ldot
ENCODING 320
SWIDTH 333 0
DWIDTH 5 0
BBX 4 8 0 0
BITMAP
9200
9300
9400
A400
A57D
9536
9400
7200
ENDCHAR
STARTCHAR Lslash
ENCODING 321
SWIDTH 346 0
DWIDTH 5 0
BBX 6 8 0 0
BITMAP
040000
0B1000
0D0000
0C1000
2F9000
AB0000
0C3100
04BDD2
ENDCHAR
STARTCHAR lslash
ENCODING 322
SWIDTH 120 0
DWIDTH 2 0
BBX 4 9 -1 0
BITMAP
0100
0740
0750
0781
09C3
9C60
1770
0660
0430
ENDCHAR
STARTCHAR Nacute
ENCODING 323
SWIDTH 609 0
DWIDTH 9 0
BBX 9 10 0 0
BITMAP
0000600000
000A500000
3204000000
670000B100
5B0000A700
6F20002C00
7A90000B10
83A3000A10
941C514B00
84019CA200
ENDCHAR
STARTCHAR nacute
ENCODING 324
SWIDTH 459 0
DWIDTH 6 0
BBX 7 10 0 0
BITMAP
00160000
01B30000
02200000
00000000
24BC8000
9C109600
96002C00
76000C10
59000B20
0A000A10
ENDCHAR
STARTCHAR Ncommaaccent
ENCODING 325
SWIDTH 609 0
DWIDTH 9 0
BBX 9 13 0 -5
BITMAP
3200000000
670000B100
5B0000A700
6F20002C00
7A90000B10
83A3000A10
941C514B00
84019CA200
0000000000
0002500000
0002B00000
0003A00000
0002200000
ENDCHAR
STARTCHAR ncommaaccent
ENCODING 326
SWIDTH 459 0
DWIDTH 6 0
BBX 7 11 0 -5
BITMAP
24BC8000
9C109600
96002C00
76000C10
59000B20
0A000A10
00000000
00240000
003A0000
00490000
00220000
ENDCHAR
STARTCHAR Ncaron
ENCODING 327
SWIDTH 609 0
DWIDTH 9 0
BBX 9 11 0 0
BITMAP
0033051000
0006D70000
0000100000
3200000000
670000B100
5B0000A700
6F20002C00
7A90000B10
83A3000A10
941C514B00
84019CA200
ENDCHAR
STARTCHAR ncaron
ENCODING 328
SWIDTH 459 0
DWIDTH 6 0
BBX 7 9 0 0
BITMAP
03306000
007D6000
00010000
24BC8000
9C109600
96002C00
76000C10
59000B20
0A000A10
ENDCHAR
STARTCHAR napostrophe
ENCODING 329
SWIDTH 459 0
DWIDTH 6 0
BBX 7 10 0 0
BITMAP
06100000
09400000
0B200000
04000000
24BC8000
9C109600
96002C00
76000C10
59000B20
0A000A10
ENDCHAR
STARTCHAR Omacron
ENCODING 332
SWIDTH 609 0
DWIDTH 9 0
BBX 9 10 0 0
BITMAP
0027870000
0036450000
0000000000
04A9500000
49127B4000
910001B400
A000001C00
8500000B10
1D50005C00
02ACBB7100
ENDCHAR
STARTCHAR omacron
ENCODING 333
SWIDTH 487 0
DWIDTH 7 0
BBX 7 8 0 0
BITMAP
01788100
02645100
03ACD400
3A103C10
A1000650
A1000850
69006D10
07CCA200
ENDCHAR
STARTCHAR Obreve
ENCODING 334
SWIDTH 609 0
DWIDTH 9 0
BBX 9 9 0 0
BITMAP
0008570000
0002400000
04A9500000
49127B4000
910001B400
A000001C00
8500000B10
1D50005C00
02ACBB7100
ENDCHAR
STARTCHAR obreve
ENCODING 335
SWIDTH 487 0
DWIDTH 7 0
BBX 7 8 0 0
BITMAP
03682000
00430000
03ACD400
3A103C10
A1000650
A1000850
69006D10
07CCA200
ENDCHAR
STARTCHAR Ohungarumlaut
ENCODING 336
SWIDTH 609 0
DWIDTH 9 0
BBX 9 10 0 0
BITMAP
001A350000
0063B20000
0000000000
04A9500000
49127B4000
910001B400
A000001C00
8500000B10
1D50005C00
02ACBB7100
ENDCHAR
STARTCHAR ohungarumlaut
ENCODING 337
SWIDTH 487 0
DWIDTH 7 0
BBX 7 8 0 0
BITMAP
00936000
045A3000
03ACD400
3A103C10
A1000650
A1000850
69006D10
07CCA200
ENDCHAR
STARTCHAR OE
ENCODING 338
SWIDTH 848 0
DWIDTH 12 0
BBX 12 7 0 0
BITMAP
05BA45998872
4913CD300001
91003F300230
A0000D978630
75000C000000
1C601E000000
019CC99BCCB4
ENDCHAR
STARTCHAR oe
ENCODING 339
SWIDTH 875 0
DWIDTH 12 0
BBX 12 8 0 -1
BITMAP
00000008A600
018BA2A40A30
2B416E700650
920008738B10
A00008874000
68005EA00000
08CCB35C8666
000000016751
ENDCHAR
STARTCHAR Racute
ENCODING 340
SWIDTH 579 0
DWIDTH 8 0
BBX 9 13 -1 -1
BITMAP
0000034000
00004A1000
0000400000
049BB95000
1B21138B00
0234000940
0047148D10
003FD95100
001F400000
000AA30000
00091A5000
0004209910
0000000450
ENDCHAR
STARTCHAR racute
ENCODING 341
SWIDTH 346 0
DWIDTH 5 0
BBX 5 9 0 0
BITMAP
001500
02C200
035300
8B7A80
A20000
930000
670000
2C0000
090000
ENDCHAR
STARTCHAR Rcommaaccent
ENCODING 342
SWIDTH 579 0
DWIDTH 8 0
BBX 9 14 -1 -5
BITMAP
049BB95000
1B21138B00
0234000940
0047148D10
003FD95100
001F400000
000AA30000
00091A5000
0004209910
0000000450
0000330000
0000490000
0000580000
0000310000
ENDCHAR
STARTCHAR rcommaaccent
ENCODING 343
SWIDTH 346 0
DWIDTH 5 0
BBX 5 12 0 -5
BITMAP
004300
8B7A80
A20000
930000
670000
2C0000
090000
000000
016000
01C000
01C000
013000
ENDCHAR
STARTCHAR Rcaron
ENCODING 344
SWIDTH 579 0
DWIDTH 8 0
BBX 9 13 -1 -1
BITMAP
0004216000
00019C4000
0000010000
049BB95000
1B21138B00
0234000940
0047148D10
003FD95100
001F400000
000AA30000
00091A5000
0004209910
0000000450
ENDCHAR
STARTCHAR rcaron
ENCODING 345
SWIDTH 346 0
DWIDTH 5 0
BBX 5 9 0 0
BITMAP
250420
04D900
005300
8B7A80
A20000
930000
670000
2C0000
090000
ENDCHAR
STARTCHAR Sacute
ENCODING 346
SWIDTH 627 0
DWIDTH 9 0
BBX 9 13 0 -1
BITMAP
0000330000
0005A00000
0004000000
0004651000
00A645C400
0280000100
00A7000000
0005B60000
200007C400
A200001B30
3A10000950
029BBAB800
0000110000
ENDCHAR
STARTCHAR sacute
ENCODING 347
SWIDTH 514 0
DWIDTH 7 0
BBX 7 10 0 0
BITMAP
00006000
000B4000
00130000
02540000
4B679000
66007000
08A97400
00013A70
650004B0
19BBCC30
ENDCHAR
STARTCHAR Scircumflex
ENCODING 348
SWIDTH 627 0
DWIDTH 9 0
BBX 9 14 0 -1
BITMAP
0000200000
0001E40000
001B9E1000
0034052000
0004651000
00A645C400
0280000100
00A7000000
0005B60000
200007C400
A200001B30
3A10000950
029BBAB800
0000110000
ENDCHAR
STARTCHAR scircumflex
ENCODING 349
SWIDTH 514 0
DWIDTH 7 0
BBX 7 11 0 0
BITMAP
00020000
000D7000
0089E400
02603400
02540000
4B679000
66007000
08A97400
00013A70
650004B0
19BBCC30
ENDCHAR
STARTCHAR Scedilla
ENCODING 350
SWIDTH 627 0
DWIDTH 9 0
BBX 9 14 0 -5
BITMAP
0004651000
00A645C400
0280000100
00A7000000
0005B60000
200007C400
A200001B30
3A10000950
029CBAB800
0037110000
0009840000
00100A2000
001B6A1000
0001410000
ENDCHAR
STARTCHAR scedilla
ENCODING 351
SWIDTH 514 0
DWIDTH 7 0
BBX 7 12 0 -5
BITMAP
02540000
4B679000
66007000
08A97400
00013A70
650004B0
19DBCC30
00900000
00795000
00107500
00A69400
00042000
ENDCHAR
STARTCHAR Scaron
ENCODING 352
SWIDTH 627 0
DWIDTH 9 0
BBX 9 12 0 -1
BITMAP
0024052000
0005D80000
0004751000
00A645C400
0280000100
00A7000000
0005B60000
200007C400
A200001B30
3A10000950
029BBAB800
0000110000
ENDCHAR
STARTCHAR scaron
ENCODING 353
SWIDTH 514 0
DWIDTH 7 0
BBX 7 9 0 0
BITMAP
01503300
003CA100
02550000
4B679000
66007000
08A97400
00013A70
650004B0
19BBCC30
ENDCHAR
STARTCHAR Tcommaaccent
ENCODING 354
SWIDTH 581 0
DWIDTH 8 0
BBX 10 14 0 -5
BITMAP
3322100000
58ABECBC92
0000910031
0000820000
0000740000
0000570000
0000490000
00001C0000
00000C3000
0000000000
0000060000
00000D0000
00000D0000
0000040000
ENDCHAR
STARTCHAR tcommaaccent
ENCODING 355
SWIDTH 328 0
DWIDTH 5 0
BBX 5 14 0 -5
BITMAP
048000
03A000
04A000
8DFC40
03B000
03B000
02C000
01C000
008000
000000
015000
01C000
03A000
022000
ENDCHAR
STARTCHAR Tcaron
ENCODING 356
SWIDTH 581 0
DWIDTH 8 0
BBX 10 11 0 0
BITMAP
0042160000
0009C50000
3322200000
58ABECBC92
0000910031
0000820000
0000740000
0000570000
0000490000
00001C0000
00000C3000
ENDCHAR
STARTCHAR tcaron
ENCODING 357
SWIDTH 431 0
DWIDTH 6 0
BBX 6 11 0 0
BITMAP
000001
000028
04801B
03A00B
04A001
8DFC40
03B000
03B000
02C000
01C000
008000
ENDCHAR
STARTCHAR Utilde
ENCODING 360
SWIDTH 571 0
DWIDTH 8 0
BBX 8 10 0 0
BITMAP
00750240
0464BA10
26100120
82000570
91000590
810002A0
640000C0
380001E4
0B403BB9
02CE9106
ENDCHAR
STARTCHAR utilde
ENCODING 361
SWIDTH 501 0
DWIDTH 7 0
BBX 7 10 0 0
BITMAP
02830510
0927B600
02000000
A1000300
B0000D00
A1000E00
76003F00
1C11BC40
04DC3390
00000050
ENDCHAR
STARTCHAR Umacron
ENCODING 362
SWIDTH 571 0
DWIDTH 8 0
BBX 8 10 0 0
BITMAP
00378500
00554400
25000120
82000570
91000590
810002A0
640000C0
380001E4
0B403BB9
02CE9106
ENDCHAR
STARTCHAR umacron
ENCODING 363
SWIDTH 501 0
DWIDTH 7 0
BBX 7 9 0 0
BITMAP
02786000
04645000
A1000300
B0000D00
A1000E00
76003F00
1C11BC40
04DC3390
00000050
ENDCHAR
STARTCHAR Ubreve
ENCODING 364
SWIDTH 571 0
DWIDTH 8 0
BBX 8 9 0 0
BITMAP
00268300
25043120
82000570
91000590
810002A0
640000C0
380001E4
0B403BB9
02CE9106
ENDCHAR
STARTCHAR ubreve
ENCODING 365
SWIDTH 501 0
DWIDTH 7 0
BBX 7 8 0 0
BITMAP
01774000
A1340300
B0000D00
A1000E00
76003F00
1C11BC40
04DC3390
00000050
ENDCHAR
STARTCHAR Uring
ENCODING 366
SWIDTH 571 0
DWIDTH 8 0
BBX 8 10 0 0
BITMAP
00279000
00538100
25042120
82000570
91000590
810002A0
640000C0
380001E4
0B403BB9
02CE9106
ENDCHAR
STARTCHAR uring
ENCODING 367
SWIDTH 501 0
DWIDTH 7 0
BBX 7 8 0 0
BITMAP
00685000
A1837300
B0251D00
A1000E00
76003F00
1C11BC40
04DC3390
00000050
ENDCHAR
STARTCHAR Uhungarumlaut
ENCODING 368
SWIDTH 571 0
DWIDTH 8 0
BBX 8 10 0 0
BITMAP
00385300
0084A000
25000120
82000570
91000590
810002A0
640000C0
380001E4
0B403BB9
02CE9106
ENDCHAR
STARTCHAR uhungarumlaut
ENCODING 369
SWIDTH 501 0
DWIDTH 7 0
BBX 7 10 0 0
BITMAP
00385300
0084A000
00000000
A1000300
B0000D00
A1000E00
76003F00
1C11BC40
04DC3390
00000050
ENDCHAR
STARTCHAR Uogonek
ENCODING 370
SWIDTH 571 0
DWIDTH 8 0
BBX 9 10 0 -3
BITMAP
2900016000
630003A000
730001B000
550000B000
380000B300
0B0003E800
06B58A6D00
005952B300
000003A410
0000001410
ENDCHAR
STARTCHAR uogonek
ENCODING 371
SWIDTH 501 0
DWIDTH 7 0
BBX 8 9 0 -2
BITMAP
50000000
B0000900
B0000E00
93001F00
49007F10
0A87A670
005519A0
00006500
00002971
ENDCHAR
STARTCHAR Wcircumflex
ENCODING 372
SWIDTH 703 0
DWIDTH 10 0
BBX 10 13 0 0
BITMAP
0000110000
00008B0000
0004BB8000
0007117000
0000000000
0000000000
8000000260
C0000001E0
C0002000B4
B201B00067
8402F10048
3A2C9B11A4
07C404DD60
ENDCHAR
STARTCHAR wcircumflex
ENCODING 373
SWIDTH 656 0
DWIDTH 9 0
BBX 9 11 0 0
BITMAP
0000200000
0000D70000
00089E4000
0026034000
0000000000
4200000000
B100300820
B000B10390
A100C401B0
4806EA17A0
07DB26BB20
ENDCHAR
STARTCHAR Ycircumflex
ENCODING 374
SWIDTH 403 0
DWIDTH 6 0
BBX 6 14 0 -1
BITMAP
001100
009A00
05BC70
071160
900023
770064
0B60C1
008DC0
000850
000B10
001A00
003800
003800
000100
ENDCHAR
STARTCHAR ycircumflex
ENCODING 375
SWIDTH 487 0
DWIDTH 7 0
BBX 7 18 0 -7
BITMAP
00020000
001E4000
01A9E200
03505300
00000100
70000700
A0000920
93000840
48000960
09527E80
007A5180
00000190
00000280
00000370
10000550
48000920
0AA24B00
005BB200
ENDCHAR
STARTCHAR Ydieresis
ENCODING 376
SWIDTH 403 0
DWIDTH 6 0
BBX 6 12 0 -1
BITMAP
031220
0B5980
900023
770064
0B60C1
008DC0
000850
000B10
001A00
003800
003800
000100
ENDCHAR
STARTCHAR Zacute
ENCODING 377
SWIDTH 571 0
DWIDTH 8 0
BBX 8 12 0 0
BITMAP
00006100
00096000
00040000
39A82000
5302A300
00002900
00003800
0158DD91
0369C220
000A1000
00760255
007DDD94
ENDCHAR
STARTCHAR zacute
ENCODING 378
SWIDTH 459 0
DWIDTH 6 0
BBX 6 10 0 0
BITMAP
000600
00A500
017200
8B8A60
2001A0
000570
4BDDA3
01C200
097026
08EDC6
ENDCHAR
STARTCHAR Zdotaccent
ENCODING 379
SWIDTH 571 0
DWIDTH 8 0
BBX 8 11 0 0
BITMAP
00260000
00150000
39A82000
5302A300
00002900
00003800
0158DD91
0369C220
000A1000
00760255
007DDD94
ENDCHAR
STARTCHAR zdotaccent
ENCODING 380
SWIDTH 459 0
DWIDTH 6 0
BBX 6 10 0 0
BITMAP
001700
000500
013200
8B8A60
2001A0
000570
4BDDA3
01C200
097026
08EDC6
ENDCHAR
STARTCHAR Zcaron
ENCODING 381
SWIDTH 571 0
DWIDTH 8 0
BBX 8 11 0 0
BITMAP
01504200
004D9000
39A92000
5302A300
00002900
00003800
0158DD91
0369C220
000A1000
00760255
007DDD94
ENDCHAR
STARTCHAR zcaron
ENCODING 382
SWIDTH 459 0
DWIDTH 6 0
BBX 6 10 0 0
BITMAP
050340
02CB10
014200
8B8A60
2001A0
000570
4BDDA3
01C200
097026
08EDC6
ENDCHAR
STARTCHAR florin
ENCODING 402
SWIDTH 376 0
DWIDTH 5 0
BBX 9 14 -2 -4
BITMAP
00004CA300
0002C12C20
0007500110
000A300000
000A300000
005CA64000
0168854000
0006600000
0006600000
0007500000
0008400000
2809400000
079B300000
0039100000
ENDCHAR
STARTCHAR AEacute
ENCODING 508
SWIDTH 960 0
DWIDTH 13 0
BBX 14 12 0 0
BITMAP
00000003400000
0059705A000000
06616A40000000
0900075AA99960
270001BB222120
350000BB000000
4400009B135840
8C9887CD875300
57001278000000
38000057000000
2A000068001330
0A00008BDEED91
ENDCHAR
STARTCHAR aeacute
ENCODING 509
SWIDTH 881 0
DWIDTH 12 0
BBX 12 11 0 -1
BITMAP
000000250000
000003B10000
000003100000
00BC6019A910
0010A6A30660
00441E800570
3C86AF869B10
A20007A42000
860013C20000
08CEEA5BB997
000000002430
ENDCHAR
STARTCHAR Oslashacute
ENCODING 510
SWIDTH 609 0
DWIDTH 9 0
BBX 9 12 0 -2
BITMAP
0001800000
000B400000
0003010000
04A9590000
49129D4000
910093B400
A000B01C00
8505600B10
1D5B105C00
02BEBB7100
0092000000
0010000000
ENDCHAR
STARTCHAR oslashacute
ENCODING 511
SWIDTH 487 0
DWIDTH 7 0
BBX 7 9 0 0
BITMAP
00003000
002B3000
00520000
018BAA00
2B41AD00
9202C750
A01C3850
68965D10
0AECB200
ENDCHAR
STARTCHAR Scommaaccent
ENCODING 536
SWIDTH 627 0
DWIDTH 9 0
BBX 9 14 0 -5
BITMAP
0004651000
00A645C400
0280000100
00A7000000
0005B60000
200007C400
A200001B30
3A10000950
029BBAB800
0000110000
0003300000
0004900000
0005800000
0003100000
ENDCHAR
STARTCHAR scommaaccent
ENCODING 537
SWIDTH 514 0
DWIDTH 7 0
BBX 7 12 0 -5
BITMAP
02540000
4B679000
66007000
08A97400
00013A70
650004B0
19BBCC30
00000000
00060000
000C1000
000C0000
00040000
ENDCHAR
STARTCHAR circumflex
ENCODING 710
SWIDTH 375 0
DWIDTH 5 0
BBX 5 4 0 7
BITMAP
002000
00D600
089E30
260340
ENDCHAR
STARTCHAR caron
ENCODING 711
SWIDTH 375 0
DWIDTH 5 0
BBX 5 3 0 6
BITMAP
150330
03CA10
001000
ENDCHAR
STARTCHAR breve
ENCODING 728
SWIDTH 224 0
DWIDTH 3 0
BBX 3 2 0 5
BITMAP
6490
1510
ENDCHAR
STARTCHAR dotaccent
ENCODING 729
SWIDTH 152 0
DWIDTH 2 0
BBX 2 2 0 6
BITMAP
35
14
ENDCHAR
STARTCHAR ring
ENCODING 730
SWIDTH 333 0
DWIDTH 5 0
BBX 3 3 1 5
BITMAP
4770
7280
1510
ENDCHAR
STARTCHAR ogonek
ENCODING 731
SWIDTH 254 0
DWIDTH 4 0
BBX 3 4 0 -3
BITMAP
0620
7600
5960
0010
ENDCHAR
STARTCHAR tilde
ENCODING 732
SWIDTH 402 0
DWIDTH 6 0
BBX 6 3 0 5
BITMAP
283051
927B60
200000
ENDCHAR
STARTCHAR hungarumlaut
ENCODING 733
SWIDTH 264 0
DWIDTH 4 0
BBX 4 2 0 6
BITMAP
2934
73B1
ENDCHAR
STARTCHAR Wgrave
ENCODING 7808
SWIDTH 703 0
DWIDTH 10 0
BBX 10 10 0 0
BITMAP
0000730000
00001A0000
0000000000
8000000260
C0000001E0
C0002000B4
B201B00067
8402F10048
3A2C9B11A4
07C404DD60
ENDCHAR
STARTCHAR wgrave
ENCODING 7809
SWIDTH 656 0
DWIDTH 9 0
BBX 9 8 0 0
BITMAP
0001910000
0000480000
4200000000
B100300820
B000B10390
A100C401B0
4806EA17A0
07DB26BB20
ENDCHAR
STARTCHAR Wacute
ENCODING 7810
SWIDTH 703 0
DWIDTH 10 0
BBX 10 10 0 0
BITMAP
0000150000
0002C20000
0003100000
8000000260
C0000001E0
C0002000B4
B201B00067
8402F10048
3A2C9B11A4
07C404DD60
ENDCHAR
STARTCHAR wacute
ENCODING 7811
SWIDTH 656 0
DWIDTH 9 0
BBX 9 9 0 0
BITMAP
0000150000
0002B20000
0003100000
4200000000
B100300820
B000B10390
A100C401B0
4806EA17A0
07DB26BB20
ENDCHAR
STARTCHAR Wdieresis
ENCODING 7812
SWIDTH 703 0
DWIDTH 10 0
BBX 10 10 0 0
BITMAP
0003122000
000B688000
0000000000
8000000260
C0000001E0
C0002000B4
B201B00067
8402F10048
3A2C9B11A4
07C404DD60
ENDCHAR
STARTCHAR wdieresis
ENCODING 7813
SWIDTH 656 0
DWIDTH 9 0
BBX 9 8 0 0
BITMAP
0004030000
002E1D4000
4200000000
B100300820
B000B10390
A100C401B0
4806EA17A0
07DB26BB20
ENDCHAR
STARTCHAR Ygrave
ENCODING 7922
SWIDTH 403 0
DWIDTH 6 0
BBX 6 13 0 -1
BITMAP
009100
004800
000000
900023
770064
0B60C1
008DC0
000850
000B10
001A00
003800
003800
000100
ENDCHAR
STARTCHAR ygrave
ENCODING 7923
SWIDTH 487 0
DWIDTH 7 0
BBX 7 15 0 -7
BITMAP
00370000
00075100
70000700
A0000920
93000840
48000960
09527E80
007A5180
00000190
00000280
00000370
10000550
48000920
0AA24B00
005BB200
ENDCHAR
STARTCHAR endash
ENCODING 8211
SWIDTH 287 0
DWIDTH 4 0
BBX 4 2 0 3
BITMAP
2674
7755
ENDCHAR
STARTCHAR emdash
ENCODING 8212
SWIDTH 512 0
DWIDTH 7 0
BBX 7 2 0 3
BITMAP
03566630
69876650
ENDCHAR
STARTCHAR quoteleft
ENCODING 8216
SWIDTH 102 0
DWIDTH 1 0
BBX 2 4 0 7
BITMAP
10
A0
A2
83
ENDCHAR
STARTCHAR quoteright
ENCODING 8217
SWIDTH 102 0
DWIDTH 1 0
BBX 2 4 0 7
BITMAP
10
A0
A2
83
ENDCHAR
STARTCHAR quotesinglbase
ENCODING 8218
SWIDTH 102 0
DWIDTH 1 0
BBX 2 4 0 -1
BITMAP
80
A2
84
21
ENDCHAR
STARTCHAR quotedblleft
ENCODING 8220
SWIDTH 234 0
DWIDTH 3 0
BBX 3 6 0 6
BITMAP
0010
6090
B1C0
94D0
36B0
0010
ENDCHAR
STARTCHAR quotedblright
ENCODING 8221
SWIDTH 234 0
DWIDTH 3 0
BBX 3 6 0 6
BITMAP
0010
6090
B1C0
94D0
36B0
0010
ENDCHAR
STARTCHAR quotedblbase
ENCODING 8222
SWIDTH 341 0
DWIDTH 5 0
BBX 3 5 1 -2
BITMAP
1130
A290
C2B0
94C0
2370
ENDCHAR
STARTCHAR dagger
ENCODING 8224
SWIDTH 375 0
DWIDTH 5 0
BBX 5 9 0 0
BITMAP
026000
009000
00A100
6DECA0
008200
008400
008400
007400
006500
ENDCHAR
STARTCHAR daggerdbl
ENCODING 8225
SWIDTH 375 0
DWIDTH 5 0
BBX 7 11 -1 0
BITMAP
00130000
00390000
000B0000
000A0000
5ABDBA70
12282040
5BBDDC50
00063000
00064000
00064000
00065000
ENDCHAR
STARTCHAR bullet
ENCODING 8226
SWIDTH 341 0
DWIDTH 5 0
BBX 3 3 1 2
BITMAP
2D60
7FD0
1A40
ENDCHAR
STARTCHAR ellipsis
ENCODING 8230
SWIDTH 612 0
DWIDTH 9 0
BBX 9 3 0 0
BITMAP
0811802700
5F67F49F20
2D34D16C00
ENDCHAR
STARTCHAR guilsinglleft
ENCODING 8249
SWIDTH 487 0
DWIDTH 7 0
BBX 7 6 0 0
BITMAP
00001820
0003B400
00891000
2B400000
BD853000
0367AB00
ENDCHAR
STARTCHAR guilsinglright
ENCODING 8250
SWIDTH 403 0
DWIDTH 6 0
BBX 6 7 0 0
BITMAP
420000
3C8200
005AD5
0001C4
003C50
07B200
780000
ENDCHAR
STARTCHAR fraction
ENCODING 8260
SWIDTH 309 0
DWIDTH 4 0
BBX 4 11 0 0
BITMAP
0003
000A
000A
0047
0093
01C0
0580
0B30
2C00
8600
A000
ENDCHAR
STARTCHAR Euro
ENCODING 8364
SWIDTH 741 0
DWIDTH 10 0
BBX 10 10 0 0
BITMAP
0000003990
0000069330
00129D6100
ACBEA78600
000A000000
027C9AA400
78B5100000
0064000000
0029000256
0006CCDB84
ENDCHAR
STARTCHAR trademark
ENCODING 8482
SWIDTH 1116 0
DWIDTH 16 0
BBX 16 9 0 0
BITMAP
8887764252000150
0245C77ADC0006A0
000092000E802D90
000083000B8EDA90
000075000C0002A0
000057001C0001C0
000039001C0000D0
00001C001C0000C2
00000C30060000A3
ENDCHAR
STARTCHAR minus
ENCODING 8722
SWIDTH 287 0
DWIDTH 4 0
BBX 4 2 0 3
BITMAP
2674
7755
ENDCHAR
STARTCHAR commaaccent
ENCODING 63171
SWIDTH 375 0
DWIDTH 5 0
BBX 2 4 1 -5
BITMAP
24
3A
49
22
ENDCHAR
STARTCHAR fi
ENCODING 64257
SWIDTH 551 0
DWIDTH 8 0
BBX 8 11 -1 -1
BITMAP
0004CA30
002B13C2
00720811
00A00000
00A20440
05CA6960
167D6980
000C14A0
0006A2D0
0000C2D0
00000020
ENDCHAR
STARTCHAR fl
ENCODING 64258
SWIDTH 723 0
DWIDTH 10 0
BBX 8 10 -1 0
BITMAP
0004CA30
002B12C2
00720731
00A00840
00A20950
05CA7B50
167D6B50
000C1960
0006A850
0000C830
ENDCHAR
STARTCHAR .notdef
ENCODING -1
SWIDTH 375 0
DWIDTH 5 0
BBX 1 1 0 0
BITMAP
00
ENDCHAR
STARTCHAR .null
ENCODING -1
SWIDTH 0 0
DWIDTH 0 0
BBX 1 1 0 0
BITMAP
00
ENDCHAR
STARTCHAR nonmarkingreturn
ENCODING -1
SWIDTH 375 0
DWIDTH 5 0
BBX 1 1 0 0
BITMAP
00
ENDCHAR
ENDFONT
